<svg id="Layer_1" enable-background="new 0 0 512 512" height="72" viewBox="0 0 512 512" width="72" xmlns="http://www.w3.org/2000/svg"><g><path d="m169.991 442.357h-44.385c-11.052 0-20.044 8.992-20.044 20.043 0 11.052 8.992 20.044 20.044 20.044h44.385c11.052 0 20.043-8.992 20.043-20.044 0-11.051-8.992-20.043-20.043-20.043zm0 25.087h-44.385c-2.781 0-5.044-2.263-5.044-5.044s2.263-5.043 5.044-5.043h44.385c2.781 0 5.043 2.263 5.043 5.043 0 2.782-2.263 5.044-5.043 5.044z"/><path d="m495.964 275.501c-20.745-50.675-77.308-87.22-130.184-93.328-9.023-1.051-18.325-1.363-27.418-.92l10.554-13.723 88.47-25.937c17.761-5.199 25.404-26.695 15.449-41.817-16.243-26.933-62.347-27.043-87.167-16.047-11.619 5.001-25.861 11.35-41.282 18.341l-28.788-10.368v-62.399c-.002-16.157-13.147-29.303-29.305-29.303h-177.615c-9.697 0-9.697 15 0 15h177.615c7.887 0 14.303 6.417 14.303 14.303v21.919h-265.596v-21.919c0-7.886 6.417-14.303 14.303-14.303h18.851c9.697 0 9.697-15 0-15h-18.851c-16.157 0-29.303 13.146-29.303 29.303v390.905 62.489c0 16.157 13.146 29.303 29.303 29.303h236.99c8.734 0 16.849-3.859 22.35-10.356 18.439 6.873 38.203 10.356 57.88 10.356 22.336 0 44.008-4.376 64.414-13.007 8.931-3.778 3.087-17.594-5.844-13.815-13.678 5.786-27.989 9.46-42.709 10.995l-22.682-52.995c-4.871-11.381-16.833-18.126-29.095-16.414l-36.247 5.074c-9.146 1.286-25.158-7.852-24.019-18.099l4.211-37.903c.881-7.931-1.719-15.84-7.134-21.7l-45.498-49.238c8.749-30.477 27.488-57.985 52.534-77.397l-4.374 15.677c-1.57 5.628 4.338 10.679 9.331 9.213l28.941-8.472c1.525-.446 2.87-1.366 3.838-2.625l33.719-43.846c5.151-.704 10.372-1.139 15.601-1.311l4.918 43.432-25.215 43.731c-6.561 11.38-4.536 25.692 4.924 34.804l8.872 8.547 11.445 37.514c5.394 17.681 28.706 22.96 41.279 9.83l29.182-30.479 40.339-3.45c9.263-.792 17.189-6.635 20.687-15.249l10.964-27.002c5.244 15.285 8.096 31.67 8.096 48.71 0 45.61-20.351 88.253-55.835 116.995-7.636 6.186 2.064 17.63 9.441 11.656 39.016-31.605 61.393-78.497 61.393-128.653 0-25.406-6.997-48.942-16.036-71.022zm-96.183-166.147c-10.825 3.083-18.94-5.018-21.754-14.311 17.59-6.031 36.447-3.851 52.483 5.403zm-130.618 18.091-38.294-34.212 13.634-3.991 60.345 21.734c-11.771 5.395-23.851 10.975-35.685 16.469zm-2.87 369.555h-236.99c-7.886 0-14.303-6.417-14.303-14.303v-54.989h187.377c9.429 16.676 21.661 31.567 36.063 44.017 10.729 9.343 22.487 17.162 35.016 23.351-2.138 1.236-4.595 1.924-7.163 1.924zm-26.649-122.821-4.211 37.903c-2.247 20.214 21.96 37.281 41.007 34.611l36.247-5.074c5.57-.781 11.011 2.287 13.225 7.46l20.503 47.904c-4.178-.003-8.327-.175-12.441-.511-3.224-.281-6.339-.602-10.741-1.277-27.099-4.229-51.825-15.713-72.123-32.4-.751-.626-.635-.527-2.476-2.084-6.206-5.367-12.036-11.291-17.429-17.748-28.282-33.863-40.057-77.019-33.236-120.241l38.433 41.592c2.461 2.665 3.642 6.26 3.242 9.865zm-36.15-110.926c-26.278 45.045-29.529 101.73-8.619 149.455h-179.875v-346.486h265.596v20.077l-33.312-11.998c-1.496-.539-3.124-.588-4.648-.142l-28.941 8.472c-5.982 3.13-6.945 7.394-2.89 12.791l43.554 38.911c-33.071 15.417-62.154 29.171-74.021 34.796l-15.399-21.495c-1.856-2.59-5.146-3.727-8.204-2.83l-18.312 5.36c-3.976 1.164-6.255 5.33-5.091 9.305l10.906 37.256c4.498 15.368 21.146 24.489 36.527 19.985l83.52-24.448-3.56 12.76c-23.564 14.32-43.331 34.405-57.231 58.231zm78.297-33.044-13.634 3.991 18.793-67.352c1.113-3.99-1.219-8.126-5.208-9.24-3.994-1.113-8.126 1.219-9.24 5.208l-3.468 12.427-92.483 27.072c-8.679 1.68-14.652-1.588-17.917-9.803l-8.798-30.058 6.008-1.759 15.951 22.264c2.114 2.952 6.04 3.964 9.317 2.405 1.251-.594 120.697-57.366 183.039-84.625 5.723 16.357 22.256 28.035 39.785 23.027l38.232-11.083c.241 1.404.25 2.873 0 4.368-.827 4.946-4.19 8.738-9 10.146l-68.732 20.151.992-1.29c2.525-3.284 1.91-7.993-1.373-10.518-3.284-2.525-7.993-1.91-10.518 1.373l-37.768 49.112c-.009.011-.018.022-.026.034zm182.251 88.963c-1.364 3.359-4.455 5.638-8.067 5.947l-43.159 3.691c-1.818.155-3.517.968-4.778 2.286l-31.14 32.524c-6.83 4.873-12.196 3.595-16.096-3.833l-12.014-39.376c-.373-1.221-1.05-2.327-1.97-3.213l-10.274-9.897c-4.487-4.322-5.447-11.11-2.335-16.508l26.447-45.869c.8-1.389 1.135-2.997.955-4.59l-4.975-43.938c52.091 3.472 100.205 35.332 123.996 81.92z"/></g></svg>