<svg id="Layer_1" enable-background="new 0 0 512 512" height="72" viewBox="0 0 512 512" width="72" xmlns="http://www.w3.org/2000/svg"><g><path d="m331.484 396.399v71.703c0 4.142 3.357 7.5 7.5 7.5s7.5-3.358 7.5-7.5v-71.703c0-4.142-3.357-7.5-7.5-7.5s-7.5 3.358-7.5 7.5zm28.209 0v71.703c0 4.142 3.357 7.5 7.5 7.5s7.5-3.358 7.5-7.5v-71.703c0-4.142-3.357-7.5-7.5-7.5s-7.5 3.358-7.5 7.5zm44.17 35.516c4.143 0 7.5-3.358 7.5-7.5v-37.636c0-15.207-12.01-27.66-27.043-28.376v-49.963c0-9.33-7.59-16.92-16.92-16.92h-10.725c-.391-1.479-.893-2.942-1.535-4.37l-47.967-104.037c-5.246-11.707-15.009-20.447-27.068-24.395 6.47-7.132 10.235-16.543 10.235-26.678v-53.08c0-21.083-8.189-40.909-23.059-55.825-14.871-14.919-34.646-23.135-55.68-23.135-43.423 0-78.75 35.421-78.75 78.96v53.08c0 12.053 5.509 23.117 14.307 30.48l-9.029 3.387c-17.687 6.627-29.76 23.101-30.758 41.967l-1.005 19.022c-.218 4.136 2.958 7.667 7.094 7.885.135.007.269.01.402.01 3.961 0 7.272-3.103 7.483-7.104l1.005-19.022c.683-12.908 8.942-24.179 21.044-28.713l24.987-9.372c9.769 14.119 25.793 22.661 43.215 22.661 18.346 0 35.321-9.688 44.82-25.129 0 0 16.83 4.218 16.928 4.243 9 2.258 16.342 8.416 20.175 16.966l38.34 83.157-22.537 14.167-31.001-57.308c-2.686-5.649-13.874-5.601-14.131 3.504v56.485h-105.187v-56.488c0-4.142-3.358-7.5-7.5-7.5s-7.5 3.358-7.5 7.5v63.671l-1.599 18.992h-25.697l2.779-52.613c.218-4.136-2.958-7.667-7.094-7.885-4.149-.215-7.667 2.958-7.885 7.094l-3.824 72.407c-.904 15.623 11.744 28.967 27.458 28.967 3.66 0 7.174-.743 10.398-2.08l-.878 10.425c-.419 4.976 1.277 9.937 4.655 13.611 2.161 2.351 4.907 4.047 7.909 4.97l6.268 79.72c-9.658 4.844-16.307 14.835-16.307 26.355 0 8.563 6.966 15.529 15.529 15.529h47.853c2.94 0 5.682-.836 8.029-2.262 2.346 1.426 5.089 2.262 8.029 2.262h47.853c8.563 0 15.529-6.966 15.529-15.529 0-11.518-6.646-21.507-16.3-26.352l6.269-79.725c2.999-.923 5.743-2.619 7.903-4.968 3.377-3.673 5.073-8.634 4.654-13.61l-6.342-75.307v-34.039l27.053 50.009c3.318 6.055 9.294 10.439 15.616 12.428v33.496c-15.034.714-27.047 13.167-27.047 28.376v96.81c0 15.666 12.745 28.411 28.41 28.411h59.729c15.666 0 28.411-12.745 28.411-28.411v-24.174c0-4.142-3.357-7.5-7.5-7.5s-7.5 3.358-7.5 7.5v24.174c0 7.395-6.017 13.411-13.411 13.411h-59.729c-7.395 0-13.41-6.016-13.41-13.411v-96.81c0-7.395 6.016-13.411 13.41-13.411h59.729c7.395 0 13.411 6.016 13.411 13.411v37.636c-.001 4.141 3.357 7.499 7.499 7.499zm-192.266-253.674c-11.396 0-21.96-5.118-29.027-13.732 4.562-3.041 8.019-7.391 9.948-12.448 6.241 2.553 13.019 3.829 19.938 3.713 6.684-.111 13.059-1.575 18.885-4.118 2.188 4.772 5.771 8.798 10.301 11.536-7.029 9.33-18.136 15.049-30.045 15.049zm-35.533-73.133v-14.59c10.359-.156 20.554-1.793 30.362-4.882 6.433-2.035 12.676-4.684 18.568-7.874 3.19 2.367 6.582 4.462 10.093 6.236 3.849 1.948 7.891 3.541 12.05 4.75v15.658c0 19.734-15.67 36.05-34.931 36.371-9.581.159-18.633-3.458-25.473-10.185-6.88-6.767-10.669-15.817-10.669-25.484zm99.277 26.932c0 9.405-5.206 17.799-13.432 21.985-2.037-.532-7.596-1.903-9.414-2.359-4.103-1.03-7.199-4.223-8.211-8.193 10.902-9.46 17.852-23.509 17.852-39.066v-18.516c0-5.203-3.536-9.707-8.6-10.953-4.049-.997-7.978-2.451-11.683-4.326-3.042-1.537-5.969-3.381-8.698-5.482-4.147-3.192-9.778-3.619-14.355-1.08-5.343 2.976-11.029 5.427-16.891 7.282-9.44 2.973-19.318 4.38-29.35 4.18-3.054-.063-5.938 1.083-8.118 3.22-2.179 2.136-3.379 4.994-3.379 8.048v18.328c0 13.72 5.381 26.569 15.151 36.178.954.938 1.945 1.821 2.957 2.673-.484 4.079-3.101 7.583-6.958 9.162l-6.807 2.553c-10.284-3.068-17.556-12.698-17.556-23.635v-53.079c0-35.268 28.598-63.96 63.75-63.96 17.019 0 33.021 6.65 45.059 18.725 12.047 12.084 18.682 28.149 18.682 45.235v53.08zm-134.754 204.982c-.539 6.419-6.006 11.448-12.447 11.448-6.893 0-12.5-5.594-12.5-12.47 0-.221.006-.442.02-.685l.254-4.815h25.224zm62.981 159.978h-47.853c-.292 0-.529-.237-.529-.529 0-7.979 6.492-14.471 14.471-14.471h19.969c7.979 0 14.471 6.492 14.471 14.471 0 .292-.238.529-.529.529zm.529-26.183c-4.277-2.424-9.212-3.817-14.471-3.817h-18.332l-5.961-75.809h38.763v79.626zm63.911 25.654c0 .292-.237.529-.529.529h-47.853c-.292 0-.529-.237-.529-.529 0-7.979 6.492-14.471 14.471-14.471h19.969c7.979 0 14.471 6.492 14.471 14.471zm-48.911-25.654v-79.626h38.771l-5.961 75.809h-18.339c-5.258 0-10.194 1.393-14.471 3.817zm48.656-94.626h-112.312c-1.891-.075-2.918-1.216-2.833-3.118 0 0 5.782-68.727 5.79-68.749h106.399l5.789 68.749c.089 1.927-.925 3.043-2.833 3.118zm51.597-71.011-2.875-5.315 21.718-13.652 3.296 7.149c1.795 3.999 1.46 8.401-.92 12.079-2.36 3.648-6.198 5.74-10.528 5.74-4.33-.001-8.413-2.296-10.691-6.001zm49.97 53.188h-32.46v-33.04c6.638-1.688 12.469-5.816 16.301-11.738 1.44-2.225 2.522-4.607 3.265-7.07h10.975c1.059 0 1.92.861 1.92 1.92v49.928z"/></g></svg>