<svg id="Capa_1" enable-background="new 0 0 512 512" height="72" viewBox="0 0 512 512" width="72" xmlns="http://www.w3.org/2000/svg"><path d="m84.594 44.743h38.109c4.147 0 7.509-3.362 7.509-7.509s-3.362-7.509-7.509-7.509h-38.109c-4.147 0-7.509 3.362-7.509 7.509s3.363 7.509 7.509 7.509z"/><path d="m84.594 74.612h38.109c4.147 0 7.509-3.362 7.509-7.509s-3.362-7.509-7.509-7.509h-38.109c-4.147 0-7.509 3.362-7.509 7.509s3.363 7.509 7.509 7.509z"/><path d="m116.875 154.787c0-10.97-8.925-19.894-19.895-19.894s-19.894 8.925-19.894 19.894c0 8.174 4.958 15.206 12.022 18.263v16.824c-7.063 3.057-12.022 10.089-12.022 18.263s4.958 15.206 12.022 18.263v60.313c-7.063 3.057-12.022 10.089-12.022 18.263 0 8.173 4.958 15.206 12.022 18.263v60.023c-7.063 3.057-12.022 10.089-12.022 18.263 0 10.97 8.925 19.895 19.894 19.895 10.97 0 19.895-8.925 19.895-19.895 0-8.449-5.304-15.667-12.75-18.546v-59.457c7.446-2.879 12.75-10.096 12.75-18.546s-5.304-15.667-12.75-18.546v-59.747c7.446-2.879 12.75-10.096 12.75-18.546 0-8.449-5.304-15.667-12.75-18.546v-16.258c7.446-2.879 12.75-10.096 12.75-18.546z"/><path d="m259.327 154.235c0-4.147-3.362-7.509-7.509-7.509h-106.34c-4.147 0-7.509 3.362-7.509 7.509s3.362 7.509 7.509 7.509h106.34c4.147 0 7.509-3.362 7.509-7.509z"/><path d="m145.478 216.446h33.873c4.147 0 7.509-3.362 7.509-7.509s-3.362-7.509-7.509-7.509h-33.873c-4.147 0-7.509 3.362-7.509 7.509s3.362 7.509 7.509 7.509z"/><path d="m209.913 296.903h-64.435c-4.147 0-7.509 3.362-7.509 7.509s3.362 7.509 7.509 7.509h64.435c4.147 0 7.509-3.362 7.509-7.509-.001-4.147-3.363-7.509-7.509-7.509z"/><path d="m209.913 393.291h-64.435c-4.147 0-7.509 3.362-7.509 7.509s3.362 7.509 7.509 7.509h64.435c4.147 0 7.509-3.362 7.509-7.509s-3.363-7.509-7.509-7.509z"/><path d="m430.821 193.788h-51.214v-174.266c0-10.764-8.758-19.522-19.523-19.522h-256.725c-4.147 0-7.509 3.362-7.509 7.509s3.362 7.509 7.509 7.509h256.725c2.484 0 4.505 2.021 4.505 4.505v70.965h-309.353v-70.966c0-2.484 2.021-4.505 4.505-4.505h7.984c4.147 0 7.509-3.362 7.509-7.509s-3.362-7.508-7.509-7.508h-7.984c-10.765 0-19.523 8.758-19.523 19.522v432.402c0 10.765 8.758 19.522 19.522 19.522h164.413c4.147 0 7.509-3.362 7.509-7.509s-3.362-7.509-7.509-7.509h-164.412c-2.484 0-4.505-2.021-4.505-4.505v-346.418h309.354v88.283h-79.336c-22.586 0-40.96 18.375-40.96 40.96v209.089c0 14.272 8.947 26.487 21.523 31.352l8.758 23.075c3.117 8.216 11.117 13.736 19.905 13.736h127.255c8.795 0 16.567-5.285 19.8-13.464l9.324-23.584c12.26-5.017 20.923-17.07 20.923-31.114v-209.09c0-22.585-18.375-40.96-40.961-40.96zm-9.086 303.195h-127.255c-2.589 0-4.947-1.627-5.866-4.048l-5.879-15.49h150.99l-6.156 15.57c-.952 2.41-3.243 3.968-5.834 3.968zm35.029-53.145c0 10.251-8.34 18.591-18.59 18.591h-160.273c-10.25 0-18.59-8.34-18.59-18.591v-209.09c0-14.305 11.638-25.943 25.943-25.943h.438v148.063c0 16.667 13.559 30.226 30.227 30.226h82.29c16.667 0 30.226-13.559 30.226-30.226v-96.706c0-4.147-3.362-7.509-7.509-7.509s-7.509 3.362-7.509 7.509v96.706c0 8.387-6.823 15.209-15.209 15.209h-82.29c-8.387 0-15.209-6.823-15.209-15.209v-148.063h112.709v16.41c0 4.147 3.362 7.509 7.509 7.509s7.509-3.362 7.509-7.509v-16.41h2.386c14.305 0 25.943 11.638 25.943 25.943v209.09z"/><path d="m304.477 404.999c-11.279 0-20.456 9.177-20.456 20.456s9.177 20.456 20.456 20.456 20.456-9.177 20.456-20.456-9.177-20.456-20.456-20.456zm0 25.894c-2.999 0-5.438-2.44-5.438-5.438 0-2.999 2.44-5.438 5.438-5.438 2.999 0 5.438 2.44 5.438 5.438.001 2.998-2.439 5.438-5.438 5.438z"/><path d="m411.598 404.999c-11.279 0-20.456 9.177-20.456 20.456s9.177 20.456 20.456 20.456 20.456-9.177 20.456-20.456-9.177-20.456-20.456-20.456zm0 25.894c-2.999 0-5.438-2.44-5.438-5.438 0-2.999 2.44-5.438 5.438-5.438 2.999 0 5.438 2.44 5.438 5.438s-2.44 5.438-5.438 5.438z"/><path d="m376.859 270.343h-39.592c-11.869 0-21.525 9.656-21.525 21.525v28.914c0 11.869 9.656 21.525 21.525 21.525h39.592c11.869 0 21.525-9.656 21.525-21.525v-28.914c0-11.869-9.656-21.525-21.525-21.525zm6.508 50.439c0 3.588-2.919 6.507-6.507 6.507h-39.592c-3.588 0-6.507-2.919-6.507-6.507v-28.914c0-3.588 2.919-6.507 6.507-6.507h39.592c3.588 0 6.507 2.919 6.507 6.507z"/></svg>