<svg id="Capa_1" enable-background="new 0 0 512 512" height="72" viewBox="0 0 512 512" width="72" xmlns="http://www.w3.org/2000/svg"><path d="m240.121 342.745c-3.93 0-7.115 3.186-7.115 7.115 0 3.93 3.186 7.115 7.115 7.115 3.93 0 7.115-3.186 7.115-7.115.001-3.929-3.185-7.115-7.115-7.115zm-26.66 0c-3.93 0-7.115 3.186-7.115 7.115 0 3.93 3.186 7.115 7.115 7.115 3.93 0 7.115-3.186 7.115-7.115s-3.185-7.115-7.115-7.115zm53.321 0c-3.93 0-7.115 3.186-7.115 7.115 0 3.93 3.186 7.115 7.115 7.115 3.93 0 7.115-3.186 7.115-7.115s-3.186-7.115-7.115-7.115zm59.345 53.12h-36.788c-9.962 0-18.067 8.105-18.067 18.067v7.456c0 9.962 8.105 18.067 18.067 18.067h36.788c9.962 0 18.067-8.105 18.067-18.067v-7.456c0-9.962-8.105-18.067-18.067-18.067zm3.067 25.524c0 1.691-1.376 3.067-3.067 3.067h-36.788c-1.691 0-3.067-1.376-3.067-3.067v-7.456c0-1.691 1.376-3.067 3.067-3.067h36.788c1.691 0 3.067 1.376 3.067 3.067zm99.548-304.774c-4.142 0-7.5 3.358-7.5 7.5v314.998c0 31.919-25.968 57.887-57.887 57.887h-192.836c-23.879 0-45.629-14.99-54.121-37.3-1.473-3.871-5.806-5.816-9.677-4.341-3.871 1.474-5.815 5.806-4.341 9.677 10.692 28.09 38.076 46.964 68.14 46.964h192.836c40.19 0 72.887-32.697 72.887-72.887v-314.998c-.001-4.142-3.359-7.5-7.501-7.5zm-184.517 279.25h-36.788c-9.962 0-18.067 8.105-18.067 18.067v7.456c0 9.962 8.105 18.067 18.067 18.067h36.788c9.962 0 18.067-8.105 18.067-18.067v-7.456c0-9.962-8.106-18.067-18.067-18.067zm3.067 25.524c0 1.691-1.376 3.067-3.067 3.067h-36.788c-1.691 0-3.067-1.376-3.067-3.067v-7.456c0-1.691 1.376-3.067 3.067-3.067h36.788c1.691 0 3.067 1.376 3.067 3.067zm56-236.087v-4.79c0-4.142-3.358-7.5-7.5-7.5s-7.5 3.358-7.5 7.5v4.79c0 4.142 3.358 7.5 7.5 7.5s7.5-3.358 7.5-7.5zm-29.113-146.455c0-4-3.242-7.242-7.242-7.242s-7.242 3.242-7.242 7.242 3.242 7.242 7.242 7.242 7.242-3.242 7.242-7.242zm-42.664 10.126-4.942-7.536c-4.142-6.318-11.125-10.09-18.68-10.09h-31.674c-26.048 0-47.24 21.192-47.24 47.24v354.827c0 26.048 21.192 47.24 47.24 47.24h181.436c26.048 0 47.24-21.192 47.24-47.24v-354.827c0-26.048-21.192-47.24-47.24-47.24h-31.675c-7.555 0-14.538 3.772-18.68 10.09l-4.941 7.537c-2.477 3.777-6.652 6.033-11.169 6.033h-48.505c-4.518-.001-8.693-2.257-11.17-6.034zm83.388 8.225 4.941-7.537c1.361-2.076 3.655-3.314 6.136-3.314h31.674c17.777 0 32.24 14.463 32.24 32.24v354.827c0 17.777-14.463 32.24-32.24 32.24h-181.435c-17.777 0-32.24-14.463-32.24-32.24v-354.828c0-17.777 14.463-32.24 32.24-32.24h31.674c2.481 0 4.775 1.239 6.136 3.315l4.942 7.536c5.258 8.02 14.123 12.808 23.713 12.808h48.505c9.591.001 18.456-4.787 23.714-12.807zm19.947 262.087h-135.826c-13.541 0-24.558 11.017-24.558 24.558v12.036c0 13.542 11.017 24.558 24.558 24.558h135.826c13.541 0 24.558-11.017 24.558-24.558v-12.036c0-13.542-11.017-24.558-24.558-24.558zm9.558 36.593c0 5.271-4.288 9.558-9.558 9.558h-135.826c-5.27 0-9.558-4.288-9.558-9.558v-12.036c0-5.27 4.288-9.558 9.558-9.558h135.826c5.27 0 9.558 4.288 9.558 9.558zm18.947-355.878h-192.836c-40.079 0-72.698 32.518-72.879 72.555h-2.556c-10.656 0-19.326 8.669-19.326 19.326v35.148c0 10.656 8.669 19.326 19.326 19.326h2.548v11.075h-2.548c-10.656 0-19.326 8.669-19.326 19.326v35.148c0 10.656 8.669 19.326 19.326 19.326h2.548v194.825c0 4.142 3.358 7.5 7.5 7.5s7.5-3.358 7.5-7.5v-353.168c0-31.919 25.968-57.887 57.887-57.887h192.836c31.919 0 57.887 25.968 57.887 57.887v16.044c0 4.142 3.358 7.5 7.5 7.5s7.5-3.358 7.5-7.5v-16.044c0-40.19-32.697-72.887-72.887-72.887zm-265.723 216.23h-2.548c-2.385 0-4.326-1.94-4.326-4.326v-35.148c0-2.385 1.94-4.326 4.326-4.326h2.548zm0-84.875h-2.548c-2.385 0-4.326-1.94-4.326-4.326v-35.148c0-2.385 1.94-4.326 4.326-4.326h2.548zm140.451 41.657c-4.142 0-7.5 3.358-7.5 7.5v4.79c0 4.142 3.358 7.5 7.5 7.5s7.5-3.358 7.5-7.5v-4.79c0-4.142-3.358-7.5-7.5-7.5zm-83.196 21.318c0 32.037 13.518 60.973 35.146 81.414.298.333.627.638.983.916 19.979 18.438 46.655 29.721 75.921 29.721 29.267 0 55.945-11.284 75.924-29.723.354-.276.682-.579.978-.911 21.629-20.441 35.148-49.378 35.148-81.416 0-61.785-50.266-112.05-112.05-112.05s-112.05 50.264-112.05 112.049zm112.05 97.05c-23.973 0-45.939-8.742-62.89-23.198 4.409-14.859 13.883-27.609 27.045-36.213 1.9-1.242 3.136-3.278 3.36-5.537s-.587-4.497-2.206-6.089c-9.547-9.386-14.805-21.92-14.805-35.291 0-27.292 22.204-49.496 49.496-49.496s49.496 22.204 49.496 49.496c0 13.372-5.258 25.905-14.806 35.291-1.619 1.591-2.43 3.83-2.206 6.089s1.46 4.294 3.36 5.537c13.162 8.604 22.636 21.355 27.045 36.214-16.951 14.456-38.917 23.197-62.889 23.197zm0-194.1c53.514 0 97.05 43.537 97.05 97.05 0 23.548-8.433 45.162-22.434 61.987-5.063-12.382-13.132-23.279-23.594-31.807 8.741-11.245 13.474-24.973 13.474-39.458 0-35.563-28.933-64.496-64.496-64.496s-64.496 28.933-64.496 64.496c0 14.485 4.732 28.213 13.473 39.458-10.462 8.528-18.531 19.425-23.594 31.807-14.001-16.825-22.434-38.438-22.434-61.986.001-53.515 43.537-97.051 97.051-97.051zm12.536 82.58c-3.122-2.721-7.859-2.396-10.582.726-.29.334-.931.894-1.954.894-1.022 0-1.663-.559-1.953-.893-2.721-3.124-7.459-3.448-10.582-.727s-3.448 7.459-.727 10.582c3.344 3.837 8.177 6.038 13.262 6.038 5.083 0 9.917-2.201 13.261-6.037 2.722-3.123 2.397-7.861-.725-10.583z"/></svg>